<svg width="404" height="128" fill="none" xmlns="http://www.w3.org/2000/svg"><mask id="path-1-outside-1_658_37" maskUnits="userSpaceOnUse" x="37.062" y="60" width="346" height="52" fill="#000"><path fill="#fff" d="M37.062 60h346v52h-346z"/><path d="M46.295 107.54c-1.24 0-2.28-.28-3.12-.84-.84-.6-1.36-1.4-1.56-2.4-.2-1.04-.02-2.2.54-3.48l14.94-32.16c.72-1.56 1.6-2.7 2.64-3.42 1.08-.72 2.3-1.08 3.66-1.08 1.36 0 2.54.36 3.54 1.08 1.04.72 1.94 1.86 2.7 3.42l14.94 32.16c.64 1.28.86 2.44.66 3.48-.16 1.04-.66 1.84-1.5 2.4-.8.56-1.8.84-3 .84-1.6 0-2.84-.36-3.72-1.08-.84-.72-1.6-1.88-2.28-3.48l-3.24-7.62 4.2 3.06h-24.72l4.26-3.06-3.24 7.62c-.72 1.6-1.46 2.76-2.22 3.48-.76.72-1.92 1.08-3.48 1.08Zm16.98-31.32-6.96 16.62-1.68-2.88h17.46l-1.68 2.88-7.02-16.62h-.12Zm28.122 31.32c-1.24 0-2.28-.28-3.12-.84-.84-.6-1.36-1.4-1.56-2.4-.2-1.04-.02-2.2.54-3.48l14.94-32.16c.72-1.56 1.6-2.7 2.64-3.42 1.08-.72 2.3-1.08 3.66-1.08 1.36 0 2.54.36 3.54 1.08 1.04.72 1.94 1.86 2.7 3.42l14.94 32.16c.64 1.28.86 2.44.66 3.48-.16 1.04-.66 1.84-1.5 2.4-.8.56-1.8.84-3 .84-1.6 0-2.84-.36-3.72-1.08-.84-.72-1.6-1.88-2.28-3.48l-3.24-7.62 4.2 3.06h-24.72l4.26-3.06-3.24 7.62c-.72 1.6-1.46 2.76-2.22 3.48-.76.72-1.92 1.08-3.48 1.08Zm16.98-31.32-6.96 16.62-1.68-2.88h17.46l-1.68 2.88-7.02-16.62h-.12Zm46.447 31.44c-4.68 0-8.7-.9-12.06-2.7-3.36-1.8-5.94-4.34-7.74-7.62-1.76-3.28-2.64-7.12-2.64-11.52 0-3.28.5-6.26 1.5-8.94 1.04-2.68 2.52-4.98 4.44-6.9 1.96-1.92 4.32-3.38 7.08-4.38 2.8-1.04 5.94-1.56 9.42-1.56 1.84 0 3.74.22 5.7.66 2 .4 3.76 1.02 5.28 1.86 1.12.6 1.9 1.36 2.34 2.28.44.92.58 1.86.42 2.82-.12.96-.46 1.82-1.02 2.58s-1.28 1.28-2.16 1.56c-.88.24-1.84.1-2.88-.42-1.2-.56-2.4-.98-3.6-1.26-1.16-.32-2.38-.48-3.66-.48-2.48 0-4.56.48-6.24 1.44-1.64.92-2.88 2.28-3.72 4.08-.84 1.8-1.26 4.02-1.26 6.66 0 2.64.42 4.88 1.26 6.72.84 1.8 2.08 3.18 3.72 4.14 1.68.92 3.76 1.38 6.24 1.38 1.04 0 2.16-.12 3.36-.36 1.2-.28 2.38-.7 3.54-1.26 1.2-.52 2.26-.66 3.18-.42.96.24 1.72.72 2.28 1.44.6.72.98 1.56 1.14 2.52.16.92.02 1.84-.42 2.76-.4.92-1.12 1.66-2.16 2.22-1.4.84-3.14 1.5-5.22 1.98-2.04.48-4.08.72-6.12.72Zm123.491-.12c-1.76 0-3.12-.48-4.08-1.44-.96-1-1.44-2.38-1.44-4.14V73.7h-9.42c-1.48 0-2.62-.38-3.42-1.14-.76-.8-1.14-1.92-1.14-3.36 0-1.48.38-2.6 1.14-3.36.8-.76 1.94-1.14 3.42-1.14h29.88c1.48 0 2.6.38 3.36 1.14.8.76 1.2 1.88 1.2 3.36 0 1.44-.4 2.56-1.2 3.36-.76.76-1.88 1.14-3.36 1.14h-9.42v28.26c0 1.76-.46 3.14-1.38 4.14-.92.96-2.3 1.44-4.14 1.44Zm27.268.12c-2.28 0-4.3-.42-6.06-1.26-1.72-.84-3.08-1.98-4.08-3.42-.96-1.48-1.44-3.16-1.44-5.04 0-2.16.56-3.86 1.68-5.1 1.12-1.24 2.92-2.12 5.4-2.64 2.48-.56 5.78-.84 9.9-.84h3.3v5.04h-3.3c-1.56 0-2.86.12-3.9.36-1 .2-1.74.54-2.22 1.02-.48.44-.72 1.02-.72 1.74 0 .92.32 1.68.96 2.28.68.6 1.64.9 2.88.9 1 0 1.88-.22 2.64-.66a5.19 5.19 0 0 0 1.92-1.8c.48-.8.72-1.72.72-2.76v-6.96c0-1.44-.38-2.46-1.14-3.06-.72-.6-1.98-.9-3.78-.9-.96 0-2.04.12-3.24.36-1.2.2-2.54.58-4.02 1.14-1.08.4-2 .46-2.76.18-.76-.28-1.36-.76-1.8-1.44-.4-.68-.6-1.42-.6-2.22.04-.8.3-1.56.78-2.28.52-.72 1.3-1.28 2.34-1.68 1.92-.72 3.68-1.2 5.28-1.44 1.64-.24 3.14-.36 4.5-.36 3.28 0 5.98.48 8.1 1.44 2.16.92 3.76 2.36 4.8 4.32 1.08 1.92 1.62 4.4 1.62 7.44v12.12c0 1.76-.42 3.1-1.26 4.02-.84.92-2.06 1.38-3.66 1.38-1.64 0-2.9-.46-3.78-1.38-.84-.92-1.26-2.26-1.26-4.02v-1.56l.36.84c-.2 1.28-.66 2.38-1.38 3.3-.72.92-1.66 1.64-2.82 2.16-1.16.52-2.48.78-3.96.78Zm34.401 0c-3.84 0-6.68-1.02-8.52-3.06-1.8-2.08-2.7-5.2-2.7-9.36V69.56c0-1.76.46-3.1 1.38-4.02.92-.92 2.22-1.38 3.9-1.38 1.72 0 3.04.46 3.96 1.38.96.92 1.44 2.26 1.44 4.02v25.32c0 1.48.28 2.56.84 3.24.6.68 1.36 1.02 2.28 1.02.28 0 .56-.02.84-.06.32-.08.66-.14 1.02-.18.68 0 1.18.26 1.5.78.36.52.54 1.58.54 3.18 0 1.4-.28 2.46-.84 3.18-.56.68-1.42 1.12-2.58 1.32-.32.04-.78.1-1.38.18-.6.08-1.16.12-1.68.12Zm14.259-.12c-1.68 0-2.98-.46-3.9-1.38-.92-.92-1.38-2.26-1.38-4.02V69.56c0-1.76.46-3.1 1.38-4.02.92-.92 2.22-1.38 3.9-1.38 1.72 0 3.04.46 3.96 1.38.96.92 1.44 2.26 1.44 4.02v19.8h.12l7.32-8.88c1-1.2 1.92-2.08 2.76-2.64.88-.6 2.06-.9 3.54-.9s2.62.36 3.42 1.08c.8.72 1.22 1.62 1.26 2.7.04 1.08-.4 2.16-1.32 3.24l-7.92 9.36V89.6l8.88 11.16c.88 1.12 1.24 2.22 1.08 3.3-.16 1.04-.68 1.88-1.56 2.52-.84.64-1.92.96-3.24.96-1.6 0-2.88-.28-3.84-.84-.96-.6-1.92-1.52-2.88-2.76l-7.5-9.24h-.12v7.44c0 3.6-1.8 5.4-5.4 5.4ZM187.363 107.66c-3.6 0-6.72-.62-9.36-1.86-2.6-1.28-4.6-3.08-6-5.4-1.4-2.32-2.1-5.06-2.1-8.22 0-3.04.66-5.7 1.98-7.98 1.36-2.32 3.2-4.12 5.52-5.4 2.36-1.32 5.04-1.98 8.04-1.98 2.2 0 4.2.36 6 1.08 1.8.68 3.34 1.7 4.62 3.06 1.28 1.32 2.24 2.92 2.88 4.8.68 1.88 1.02 3.98 1.02 6.3 0 .8-.22 1.4-.66 1.8-.44.36-1.14.54-2.1.54h-18.36v-5.04h13.32l-.96.78c0-1.48-.2-2.68-.6-3.6-.4-.92-1-1.62-1.8-2.1-.76-.48-1.72-.72-2.88-.72-1.24 0-2.32.3-3.24.9-.88.56-1.56 1.4-2.04 2.52s-.72 2.52-.72 4.2v.54c0 2.84.62 4.88 1.86 6.12 1.28 1.2 3.24 1.8 5.88 1.8.88 0 1.88-.1 3-.3 1.16-.24 2.26-.56 3.3-.96 1.04-.4 1.94-.46 2.7-.18.76.24 1.34.68 1.74 1.32.44.6.68 1.3.72 2.1.04.76-.14 1.52-.54 2.28-.4.72-1.06 1.28-1.98 1.68-1.4.64-2.9 1.12-4.5 1.44-1.56.32-3.14.48-4.74.48Zm28.301 0c-1.76 0-3.56-.14-5.4-.42-1.8-.24-3.44-.7-4.92-1.38-1-.4-1.72-.94-2.16-1.62-.4-.68-.6-1.4-.6-2.16.04-.76.26-1.44.66-2.04.44-.64 1-1.08 1.68-1.32.72-.28 1.52-.26 2.4.06 1.68.6 3.18 1.04 4.5 1.32 1.36.24 2.66.36 3.9.36 1.48 0 2.54-.2 3.18-.6.64-.44.96-1 .96-1.68 0-.6-.22-1.06-.66-1.38-.4-.32-.98-.54-1.74-.66l-6.66-1.08c-2.48-.44-4.4-1.34-5.76-2.7-1.36-1.4-2.04-3.22-2.04-5.46 0-2.08.58-3.86 1.74-5.34 1.2-1.52 2.82-2.68 4.86-3.48 2.08-.84 4.46-1.26 7.14-1.26 1.8 0 3.44.14 4.92.42 1.48.24 2.92.7 4.32 1.38.88.36 1.5.88 1.86 1.56.36.68.5 1.4.42 2.16-.08.72-.34 1.4-.78 2.04-.4.6-.96 1.02-1.68 1.26-.72.2-1.56.14-2.52-.18-1.32-.52-2.5-.9-3.54-1.14-1-.24-1.94-.36-2.82-.36-1.64 0-2.8.22-3.48.66-.68.44-1.02 1-1.02 1.68 0 .52.18.96.54 1.32.36.32.92.54 1.68.66l6.66 1.14c2.56.4 4.52 1.28 5.88 2.64 1.4 1.32 2.1 3.12 2.1 5.4 0 3.24-1.24 5.76-3.72 7.56-2.48 1.76-5.78 2.64-9.9 2.64Zm29.106 0c-1.76 0-3.56-.14-5.4-.42-1.8-.24-3.44-.7-4.92-1.38-1-.4-1.72-.94-2.16-1.62-.4-.68-.6-1.4-.6-2.16.04-.76.26-1.44.66-2.04.44-.64 1-1.08 1.68-1.32.72-.28 1.52-.26 2.4.06 1.68.6 3.18 1.04 4.5 1.32 1.36.24 2.66.36 3.9.36 1.48 0 2.54-.2 3.18-.6.64-.44.96-1 .96-1.68 0-.6-.22-1.06-.66-1.38-.4-.32-.98-.54-1.74-.66l-6.66-1.08c-2.48-.44-4.4-1.34-5.76-2.7-1.36-1.4-2.04-3.22-2.04-5.46 0-2.08.58-3.86 1.74-5.34 1.2-1.52 2.82-2.68 4.86-3.48 2.08-.84 4.46-1.26 7.14-1.26 1.8 0 3.44.14 4.92.42 1.48.24 2.92.7 4.32 1.38.88.36 1.5.88 1.86 1.56.36.68.5 1.4.42 2.16-.08.72-.34 1.4-.78 2.04-.4.6-.96 1.02-1.68 1.26-.72.2-1.56.14-2.52-.18-1.32-.52-2.5-.9-3.54-1.14-1-.24-1.94-.36-2.82-.36-1.64 0-2.8.22-3.48.66-.68.44-1.02 1-1.02 1.68 0 .52.18.96.54 1.32.36.32.92.54 1.68.66l6.66 1.14c2.56.4 4.52 1.28 5.88 2.64 1.4 1.32 2.1 3.12 2.1 5.4 0 3.24-1.24 5.76-3.72 7.56-2.48 1.76-5.78 2.64-9.9 2.64Z"/></mask><path d="M46.295 107.54c-1.24 0-2.28-.28-3.12-.84-.84-.6-1.36-1.4-1.56-2.4-.2-1.04-.02-2.2.54-3.48l14.94-32.16c.72-1.56 1.6-2.7 2.64-3.42 1.08-.72 2.3-1.08 3.66-1.08 1.36 0 2.54.36 3.54 1.08 1.04.72 1.94 1.86 2.7 3.42l14.94 32.16c.64 1.28.86 2.44.66 3.48-.16 1.04-.66 1.84-1.5 2.4-.8.56-1.8.84-3 .84-1.6 0-2.84-.36-3.72-1.08-.84-.72-1.6-1.88-2.28-3.48l-3.24-7.62 4.2 3.06h-24.72l4.26-3.06-3.24 7.62c-.72 1.6-1.46 2.76-2.22 3.48-.76.72-1.92 1.08-3.48 1.08Zm16.98-31.32-6.96 16.62-1.68-2.88h17.46l-1.68 2.88-7.02-16.62h-.12Zm28.122 31.32c-1.24 0-2.28-.28-3.12-.84-.84-.6-1.36-1.4-1.56-2.4-.2-1.04-.02-2.2.54-3.48l14.94-32.16c.72-1.56 1.6-2.7 2.64-3.42 1.08-.72 2.3-1.08 3.66-1.08 1.36 0 2.54.36 3.54 1.08 1.04.72 1.94 1.86 2.7 3.42l14.94 32.16c.64 1.28.86 2.44.66 3.48-.16 1.04-.66 1.84-1.5 2.4-.8.56-1.8.84-3 .84-1.6 0-2.84-.36-3.72-1.08-.84-.72-1.6-1.88-2.28-3.48l-3.24-7.62 4.2 3.06h-24.72l4.26-3.06-3.24 7.62c-.72 1.6-1.46 2.76-2.22 3.48-.76.72-1.92 1.08-3.48 1.08Zm16.98-31.32-6.96 16.62-1.68-2.88h17.46l-1.68 2.88-7.02-16.62h-.12Zm46.447 31.44c-4.68 0-8.7-.9-12.06-2.7-3.36-1.8-5.94-4.34-7.74-7.62-1.76-3.28-2.64-7.12-2.64-11.52 0-3.28.5-6.26 1.5-8.94 1.04-2.68 2.52-4.98 4.44-6.9 1.96-1.92 4.32-3.38 7.08-4.38 2.8-1.04 5.94-1.56 9.42-1.56 1.84 0 3.74.22 5.7.66 2 .4 3.76 1.02 5.28 1.86 1.12.6 1.9 1.36 2.34 2.28.44.92.58 1.86.42 2.82-.12.96-.46 1.82-1.02 2.58s-1.28 1.28-2.16 1.56c-.88.24-1.84.1-2.88-.42-1.2-.56-2.4-.98-3.6-1.26-1.16-.32-2.38-.48-3.66-.48-2.48 0-4.56.48-6.24 1.44-1.64.92-2.88 2.28-3.72 4.08-.84 1.8-1.26 4.02-1.26 6.66 0 2.64.42 4.88 1.26 6.72.84 1.8 2.08 3.18 3.72 4.14 1.68.92 3.76 1.38 6.24 1.38 1.04 0 2.16-.12 3.36-.36 1.2-.28 2.38-.7 3.54-1.26 1.2-.52 2.26-.66 3.18-.42.96.24 1.72.72 2.28 1.44.6.72.98 1.56 1.14 2.52.16.92.02 1.84-.42 2.76-.4.92-1.12 1.66-2.16 2.22-1.4.84-3.14 1.5-5.22 1.98-2.04.48-4.08.72-6.12.72Zm123.491-.12c-1.76 0-3.12-.48-4.08-1.44-.96-1-1.44-2.38-1.44-4.14V73.7h-9.42c-1.48 0-2.62-.38-3.42-1.14-.76-.8-1.14-1.92-1.14-3.36 0-1.48.38-2.6 1.14-3.36.8-.76 1.94-1.14 3.42-1.14h29.88c1.48 0 2.6.38 3.36 1.14.8.76 1.2 1.88 1.2 3.36 0 1.44-.4 2.56-1.2 3.36-.76.76-1.88 1.14-3.36 1.14h-9.42v28.26c0 1.76-.46 3.14-1.38 4.14-.92.96-2.3 1.44-4.14 1.44Zm27.268.12c-2.28 0-4.3-.42-6.06-1.26-1.72-.84-3.08-1.98-4.08-3.42-.96-1.48-1.44-3.16-1.44-5.04 0-2.16.56-3.86 1.68-5.1 1.12-1.24 2.92-2.12 5.4-2.64 2.48-.56 5.78-.84 9.9-.84h3.3v5.04h-3.3c-1.56 0-2.86.12-3.9.36-1 .2-1.74.54-2.22 1.02-.48.44-.72 1.02-.72 1.74 0 .92.32 1.68.96 2.28.68.6 1.64.9 2.88.9 1 0 1.88-.22 2.64-.66a5.19 5.19 0 0 0 1.92-1.8c.48-.8.72-1.72.72-2.76v-6.96c0-1.44-.38-2.46-1.14-3.06-.72-.6-1.98-.9-3.78-.9-.96 0-2.04.12-3.24.36-1.2.2-2.54.58-4.02 1.14-1.08.4-2 .46-2.76.18-.76-.28-1.36-.76-1.8-1.44-.4-.68-.6-1.42-.6-2.22.04-.8.3-1.56.78-2.28.52-.72 1.3-1.28 2.34-1.68 1.92-.72 3.68-1.2 5.28-1.44 1.64-.24 3.14-.36 4.5-.36 3.28 0 5.98.48 8.1 1.44 2.16.92 3.76 2.36 4.8 4.32 1.08 1.92 1.62 4.4 1.62 7.44v12.12c0 1.76-.42 3.1-1.26 4.02-.84.92-2.06 1.38-3.66 1.38-1.64 0-2.9-.46-3.78-1.38-.84-.92-1.26-2.26-1.26-4.02v-1.56l.36.84c-.2 1.28-.66 2.38-1.38 3.3-.72.92-1.66 1.64-2.82 2.16-1.16.52-2.48.78-3.96.78Zm34.401 0c-3.84 0-6.68-1.02-8.52-3.06-1.8-2.08-2.7-5.2-2.7-9.36V69.56c0-1.76.46-3.1 1.38-4.02.92-.92 2.22-1.38 3.9-1.38 1.72 0 3.04.46 3.96 1.38.96.92 1.44 2.26 1.44 4.02v25.32c0 1.48.28 2.56.84 3.24.6.68 1.36 1.02 2.28 1.02.28 0 .56-.02.84-.06.32-.08.66-.14 1.02-.18.68 0 1.18.26 1.5.78.36.52.54 1.58.54 3.18 0 1.4-.28 2.46-.84 3.18-.56.68-1.42 1.12-2.58 1.32-.32.04-.78.1-1.38.18-.6.08-1.16.12-1.68.12Zm14.259-.12c-1.68 0-2.98-.46-3.9-1.38-.92-.92-1.38-2.26-1.38-4.02V69.56c0-1.76.46-3.1 1.38-4.02.92-.92 2.22-1.38 3.9-1.38 1.72 0 3.04.46 3.96 1.38.96.92 1.44 2.26 1.44 4.02v19.8h.12l7.32-8.88c1-1.2 1.92-2.08 2.76-2.64.88-.6 2.06-.9 3.54-.9s2.62.36 3.42 1.08c.8.72 1.22 1.62 1.26 2.7.04 1.08-.4 2.16-1.32 3.24l-7.92 9.36V89.6l8.88 11.16c.88 1.12 1.24 2.22 1.08 3.3-.16 1.04-.68 1.88-1.56 2.52-.84.64-1.92.96-3.24.96-1.6 0-2.88-.28-3.84-.84-.96-.6-1.92-1.52-2.88-2.76l-7.5-9.24h-.12v7.44c0 3.6-1.8 5.4-5.4 5.4Z" fill="#24C104"/><path d="M46.295 107.54c-1.24 0-2.28-.28-3.12-.84-.84-.6-1.36-1.4-1.56-2.4-.2-1.04-.02-2.2.54-3.48l14.94-32.16c.72-1.56 1.6-2.7 2.64-3.42 1.08-.72 2.3-1.08 3.66-1.08 1.36 0 2.54.36 3.54 1.08 1.04.72 1.94 1.86 2.7 3.42l14.94 32.16c.64 1.28.86 2.44.66 3.48-.16 1.04-.66 1.84-1.5 2.4-.8.56-1.8.84-3 .84-1.6 0-2.84-.36-3.72-1.08-.84-.72-1.6-1.88-2.28-3.48l-3.24-7.62 4.2 3.06h-24.72l4.26-3.06-3.24 7.62c-.72 1.6-1.46 2.76-2.22 3.48-.76.72-1.92 1.08-3.48 1.08Zm16.98-31.32-6.96 16.62-1.68-2.88h17.46l-1.68 2.88-7.02-16.62h-.12Zm28.122 31.32c-1.24 0-2.28-.28-3.12-.84-.84-.6-1.36-1.4-1.56-2.4-.2-1.04-.02-2.2.54-3.48l14.94-32.16c.72-1.56 1.6-2.7 2.64-3.42 1.08-.72 2.3-1.08 3.66-1.08 1.36 0 2.54.36 3.54 1.08 1.04.72 1.94 1.86 2.7 3.42l14.94 32.16c.64 1.28.86 2.44.66 3.48-.16 1.04-.66 1.84-1.5 2.4-.8.56-1.8.84-3 .84-1.6 0-2.84-.36-3.72-1.08-.84-.72-1.6-1.88-2.28-3.48l-3.24-7.62 4.2 3.06h-24.72l4.26-3.06-3.24 7.62c-.72 1.6-1.46 2.76-2.22 3.48-.76.72-1.92 1.08-3.48 1.08Zm16.98-31.32-6.96 16.62-1.68-2.88h17.46l-1.68 2.88-7.02-16.62h-.12Zm46.447 31.44c-4.68 0-8.7-.9-12.06-2.7-3.36-1.8-5.94-4.34-7.74-7.62-1.76-3.28-2.64-7.12-2.64-11.52 0-3.28.5-6.26 1.5-8.94 1.04-2.68 2.52-4.98 4.44-6.9 1.96-1.92 4.32-3.38 7.08-4.38 2.8-1.04 5.94-1.56 9.42-1.56 1.84 0 3.74.22 5.7.66 2 .4 3.76 1.02 5.28 1.86 1.12.6 1.9 1.36 2.34 2.28.44.92.58 1.86.42 2.82-.12.96-.46 1.82-1.02 2.58s-1.28 1.28-2.16 1.56c-.88.24-1.84.1-2.88-.42-1.2-.56-2.4-.98-3.6-1.26-1.16-.32-2.38-.48-3.66-.48-2.48 0-4.56.48-6.24 1.44-1.64.92-2.88 2.28-3.72 4.08-.84 1.8-1.26 4.02-1.26 6.66 0 2.64.42 4.88 1.26 6.72.84 1.8 2.08 3.18 3.72 4.14 1.68.92 3.76 1.38 6.24 1.38 1.04 0 2.16-.12 3.36-.36 1.2-.28 2.38-.7 3.54-1.26 1.2-.52 2.26-.66 3.18-.42.96.24 1.72.72 2.28 1.44.6.72.98 1.56 1.14 2.52.16.92.02 1.84-.42 2.76-.4.92-1.12 1.66-2.16 2.22-1.4.84-3.14 1.5-5.22 1.98-2.04.48-4.08.72-6.12.72Zm123.491-.12c-1.76 0-3.12-.48-4.08-1.44-.96-1-1.44-2.38-1.44-4.14V73.7h-9.42c-1.48 0-2.62-.38-3.42-1.14-.76-.8-1.14-1.92-1.14-3.36 0-1.48.38-2.6 1.14-3.36.8-.76 1.94-1.14 3.42-1.14h29.88c1.48 0 2.6.38 3.36 1.14.8.76 1.2 1.88 1.2 3.36 0 1.44-.4 2.56-1.2 3.36-.76.76-1.88 1.14-3.36 1.14h-9.42v28.26c0 1.76-.46 3.14-1.38 4.14-.92.96-2.3 1.44-4.14 1.44Zm27.268.12c-2.28 0-4.3-.42-6.06-1.26-1.72-.84-3.08-1.98-4.08-3.42-.96-1.48-1.44-3.16-1.44-5.04 0-2.16.56-3.86 1.68-5.1 1.12-1.24 2.92-2.12 5.4-2.64 2.48-.56 5.78-.84 9.9-.84h3.3v5.04h-3.3c-1.56 0-2.86.12-3.9.36-1 .2-1.74.54-2.22 1.02-.48.44-.72 1.02-.72 1.74 0 .92.32 1.68.96 2.28.68.6 1.64.9 2.88.9 1 0 1.88-.22 2.64-.66a5.19 5.19 0 0 0 1.92-1.8c.48-.8.72-1.72.72-2.76v-6.96c0-1.44-.38-2.46-1.14-3.06-.72-.6-1.98-.9-3.78-.9-.96 0-2.04.12-3.24.36-1.2.2-2.54.58-4.02 1.14-1.08.4-2 .46-2.76.18-.76-.28-1.36-.76-1.8-1.44-.4-.68-.6-1.42-.6-2.22.04-.8.3-1.56.78-2.28.52-.72 1.3-1.28 2.34-1.68 1.92-.72 3.68-1.2 5.28-1.44 1.64-.24 3.14-.36 4.5-.36 3.28 0 5.98.48 8.1 1.44 2.16.92 3.76 2.36 4.8 4.32 1.08 1.92 1.62 4.4 1.62 7.44v12.12c0 1.76-.42 3.1-1.26 4.02-.84.92-2.06 1.38-3.66 1.38-1.64 0-2.9-.46-3.78-1.38-.84-.92-1.26-2.26-1.26-4.02v-1.56l.36.84c-.2 1.28-.66 2.38-1.38 3.3-.72.92-1.66 1.64-2.82 2.16-1.16.52-2.48.78-3.96.78Zm34.401 0c-3.84 0-6.68-1.02-8.52-3.06-1.8-2.08-2.7-5.2-2.7-9.36V69.56c0-1.76.46-3.1 1.38-4.02.92-.92 2.22-1.38 3.9-1.38 1.72 0 3.04.46 3.96 1.38.96.92 1.44 2.26 1.44 4.02v25.32c0 1.48.28 2.56.84 3.24.6.68 1.36 1.02 2.28 1.02.28 0 .56-.02.84-.06.32-.08.66-.14 1.02-.18.68 0 1.18.26 1.5.78.36.52.54 1.58.54 3.18 0 1.4-.28 2.46-.84 3.18-.56.68-1.42 1.12-2.58 1.32-.32.04-.78.1-1.38.18-.6.08-1.16.12-1.68.12Zm14.259-.12c-1.68 0-2.98-.46-3.9-1.38-.92-.92-1.38-2.26-1.38-4.02V69.56c0-1.76.46-3.1 1.38-4.02.92-.92 2.22-1.38 3.9-1.38 1.72 0 3.04.46 3.96 1.38.96.92 1.44 2.26 1.44 4.02v19.8h.12l7.32-8.88c1-1.2 1.92-2.08 2.76-2.64.88-.6 2.06-.9 3.54-.9s2.62.36 3.42 1.08c.8.72 1.22 1.62 1.26 2.7.04 1.08-.4 2.16-1.32 3.24l-7.92 9.36V89.6l8.88 11.16c.88 1.12 1.24 2.22 1.08 3.3-.16 1.04-.68 1.88-1.56 2.52-.84.64-1.92.96-3.24.96-1.6 0-2.88-.28-3.84-.84-.96-.6-1.92-1.52-2.88-2.76l-7.5-9.24h-.12v7.44c0 3.6-1.8 5.4-5.4 5.4ZM187.363 107.66c-3.6 0-6.72-.62-9.36-1.86-2.6-1.28-4.6-3.08-6-5.4-1.4-2.32-2.1-5.06-2.1-8.22 0-3.04.66-5.7 1.98-7.98 1.36-2.32 3.2-4.12 5.52-5.4 2.36-1.32 5.04-1.98 8.04-1.98 2.2 0 4.2.36 6 1.08 1.8.68 3.34 1.7 4.62 3.06 1.28 1.32 2.24 2.92 2.88 4.8.68 1.88 1.02 3.98 1.02 6.3 0 .8-.22 1.4-.66 1.8-.44.36-1.14.54-2.1.54h-18.36v-5.04h13.32l-.96.78c0-1.48-.2-2.68-.6-3.6-.4-.92-1-1.62-1.8-2.1-.76-.48-1.72-.72-2.88-.72-1.24 0-2.32.3-3.24.9-.88.56-1.56 1.4-2.04 2.52s-.72 2.52-.72 4.2v.54c0 2.84.62 4.88 1.86 6.12 1.28 1.2 3.24 1.8 5.88 1.8.88 0 1.88-.1 3-.3 1.16-.24 2.26-.56 3.3-.96 1.04-.4 1.94-.46 2.7-.18.76.24 1.34.68 1.74 1.32.44.6.68 1.3.72 2.1.04.76-.14 1.52-.54 2.28-.4.72-1.06 1.28-1.98 1.68-1.4.64-2.9 1.12-4.5 1.44-1.56.32-3.14.48-4.74.48Zm28.301 0c-1.76 0-3.56-.14-5.4-.42-1.8-.24-3.44-.7-4.92-1.38-1-.4-1.72-.94-2.16-1.62-.4-.68-.6-1.4-.6-2.16.04-.76.26-1.44.66-2.04.44-.64 1-1.08 1.68-1.32.72-.28 1.52-.26 2.4.06 1.68.6 3.18 1.04 4.5 1.32 1.36.24 2.66.36 3.9.36 1.48 0 2.54-.2 3.18-.6.64-.44.96-1 .96-1.68 0-.6-.22-1.06-.66-1.38-.4-.32-.98-.54-1.74-.66l-6.66-1.08c-2.48-.44-4.4-1.34-5.76-2.7-1.36-1.4-2.04-3.22-2.04-5.46 0-2.08.58-3.86 1.74-5.34 1.2-1.52 2.82-2.68 4.86-3.48 2.08-.84 4.46-1.26 7.14-1.26 1.8 0 3.44.14 4.92.42 1.48.24 2.92.7 4.32 1.38.88.36 1.5.88 1.86 1.56.36.68.5 1.4.42 2.16-.08.72-.34 1.4-.78 2.04-.4.6-.96 1.02-1.68 1.26-.72.2-1.56.14-2.52-.18-1.32-.52-2.5-.9-3.54-1.14-1-.24-1.94-.36-2.82-.36-1.64 0-2.8.22-3.48.66-.68.44-1.02 1-1.02 1.68 0 .52.18.96.54 1.32.36.32.92.54 1.68.66l6.66 1.14c2.56.4 4.52 1.28 5.88 2.64 1.4 1.32 2.1 3.12 2.1 5.4 0 3.24-1.24 5.76-3.72 7.56-2.48 1.76-5.78 2.64-9.9 2.64Zm29.106 0c-1.76 0-3.56-.14-5.4-.42-1.8-.24-3.44-.7-4.92-1.38-1-.4-1.72-.94-2.16-1.62-.4-.68-.6-1.4-.6-2.16.04-.76.26-1.44.66-2.04.44-.64 1-1.08 1.68-1.32.72-.28 1.52-.26 2.4.06 1.68.6 3.18 1.04 4.5 1.32 1.36.24 2.66.36 3.9.36 1.48 0 2.54-.2 3.18-.6.64-.44.96-1 .96-1.68 0-.6-.22-1.06-.66-1.38-.4-.32-.98-.54-1.74-.66l-6.66-1.08c-2.48-.44-4.4-1.34-5.76-2.7-1.36-1.4-2.04-3.22-2.04-5.46 0-2.08.58-3.86 1.74-5.34 1.2-1.52 2.82-2.68 4.86-3.48 2.08-.84 4.46-1.26 7.14-1.26 1.8 0 3.44.14 4.92.42 1.48.24 2.92.7 4.32 1.38.88.36 1.5.88 1.86 1.56.36.68.5 1.4.42 2.16-.08.72-.34 1.4-.78 2.04-.4.6-.96 1.02-1.68 1.26-.72.2-1.56.14-2.52-.18-1.32-.52-2.5-.9-3.54-1.14-1-.24-1.94-.36-2.82-.36-1.64 0-2.8.22-3.48.66-.68.44-1.02 1-1.02 1.68 0 .52.18.96.54 1.32.36.32.92.54 1.68.66l6.66 1.14c2.56.4 4.52 1.28 5.88 2.64 1.4 1.32 2.1 3.12 2.1 5.4 0 3.24-1.24 5.76-3.72 7.56-2.48 1.76-5.78 2.64-9.9 2.64Z" fill="#F9AA33"/><path d="m43.175 106.7-2.325 3.255.052.037.054.036 2.219-3.328Zm-1.56-2.4-3.928.755.003.015.003.014 3.922-.784Zm.54-3.48-3.628-1.685-.019.04-.018.042 3.665 1.603Zm14.94-32.16 3.628 1.685.004-.009-3.632-1.676Zm2.64-3.42-2.219-3.328-.03.02-.028.02 2.277 3.288Zm7.2 0-2.337 3.246.03.022.03.02 2.277-3.288Zm2.7 3.42 3.628-1.685-.016-.034-.016-.033-3.596 1.752Zm14.94 32.16-3.628 1.685.025.052.025.052 3.578-1.789Zm.66 3.48-3.928-.755-.014.073-.012.074 3.954.608Zm-1.5 2.4-2.219-3.328-.038.025-.037.026 2.294 3.277Zm-6.72-.24-2.603 3.037.034.03.036.029 2.533-3.096Zm-2.28-3.48 3.681-1.565-3.681 1.565Zm-3.24-7.62 2.355-3.233-11.701-8.525 5.665 13.323 3.68-1.565Zm4.2 3.06v4h12.283l-9.928-7.233-2.355 3.233Zm-24.72 0-2.334-3.249-10.091 7.249h12.425v-4Zm4.26-3.06 3.68 1.565 5.593-13.15L52.9 92.11l2.334 3.249Zm-3.24 7.62 3.648 1.641.017-.038.016-.038-3.681-1.565Zm-2.22 3.48-2.751-2.904 2.75 2.904Zm13.5-30.24v-4h-2.662l-1.028 2.455 3.69 1.545Zm-6.96 16.62-3.455 2.016 4.044 6.933 3.1-7.404-3.69-1.545Zm-1.68-2.88v-4H47.67l3.509 6.016 3.455-2.016Zm17.46 0 3.455 2.016 3.509-6.016h-6.964v4Zm-1.68 2.88-3.685 1.556 3.111 7.366 4.029-6.906-3.455-2.016Zm-7.02-16.62 3.685-1.556-1.032-2.444h-2.653v4Zm-17.1 27.32c-.632 0-.855-.137-.901-.168l-4.438 6.656c1.633 1.089 3.49 1.512 5.339 1.512v-8Zm-.795-.095c-.026-.019-.032-.026-.026-.02a.346.346 0 0 1 .065.102c.005.013.003.011-.002-.011l-7.844 1.568c.402 2.01 1.501 3.688 3.157 4.871l4.65-6.51Zm.043.1c-.005-.027-.061-.35.276-1.122l-7.329-3.206c-.782 1.788-1.198 3.785-.803 5.838l7.856-1.51Zm.24-1.04 14.94-32.16-7.256-3.37-14.94 32.16 7.256 3.37Zm14.944-32.169c.524-1.135 1.006-1.614 1.285-1.807l-4.554-6.578C55.656 63.2 54.379 65 53.463 66.984l7.264 3.352Zm1.227-1.768c.39-.26.83-.408 1.44-.408v-8c-2.109 0-4.108.572-5.878 1.752l4.438 6.656Zm1.44-.408c.613 0 .955.147 1.204.326l4.674-6.492c-1.751-1.261-3.77-1.834-5.877-1.834v8Zm1.264.369c.305.21.815.72 1.38 1.883l7.193-3.504c-.954-1.958-2.244-3.728-4.02-4.957l-4.553 6.578Zm1.35 1.816 14.94 32.16 7.255-3.37-14.94-32.16-7.256 3.37Zm14.99 32.264c.383.767.293 1.018.309.936l7.856 1.51c.416-2.162-.114-4.231-1.01-6.024l-7.156 3.578Zm.283 1.083c-.007.045-.003-.021.067-.132a.783.783 0 0 1 .168-.188l4.438 6.656c1.818-1.212 2.912-3.023 3.234-5.12l-7.907-1.216Zm.16-.269c-.007.005-.042.029-.135.055-.099.028-.28.062-.571.062v8c1.83 0 3.68-.434 5.294-1.563l-4.588-6.554Zm-.706.117c-1.047 0-1.264-.238-1.187-.176l-5.066 6.192c1.836 1.502 4.1 1.984 6.253 1.984v-8Zm-1.117-.117c-.18-.154-.64-.684-1.202-2.008l-7.362 3.13c.797 1.876 1.857 3.666 3.358 4.952l5.206-6.074Zm-1.202-2.008-3.24-7.62-7.362 3.13 3.24 7.62 7.362-3.13Zm-9.276-2.822 4.2 3.06 4.71-6.466-4.2-3.06-4.71 6.466Zm6.555-4.173h-24.72v8h24.72v-8Zm-22.386 7.249 4.26-3.06L52.9 92.11l-4.26 3.06 4.668 6.498Zm-1.755-7.874-3.24 7.62 7.362 3.13 3.24-7.62-7.362-3.13Zm-3.207 7.544c-.631 1.402-1.113 2.018-1.323 2.217l5.502 5.808c1.31-1.241 2.308-2.945 3.117-4.743l-7.296-3.282Zm-1.323 2.217c.13-.124.214-.134.125-.106-.105.032-.368.09-.854.09v8c2.09 0 4.434-.474 6.23-2.176l-5.501-5.808Zm12.561-28.881-6.96 16.62 7.38 3.09 6.96-16.62-7.38-3.09Zm.185 16.15-1.68-2.88-6.91 4.03 1.68 2.88 6.91-4.03Zm-5.135 3.135h17.46v-8h-17.46v8Zm14.005-6.015-1.68 2.88 6.91 4.03 1.68-2.88-6.91-4.03Zm5.46 3.339-7.02-16.62-7.37 3.112 7.02 16.62 7.37-3.112ZM63.395 72.22h-.12v8h.12v-8Zm24.882 34.48-2.325 3.255.052.037.054.036 2.219-3.328Zm-1.56-2.4-3.928.755.002.015.003.014 3.923-.784Zm.54-3.48-3.628-1.685-.019.04-.018.042 3.665 1.603Zm14.94-32.16 3.627 1.685.004-.009-3.631-1.676Zm2.64-3.42-2.219-3.328-.029.02-.029.02 2.277 3.288Zm7.2 0-2.338 3.246.03.022.031.02 2.277-3.288Zm2.7 3.42 3.627-1.685-.015-.034-.016-.033-3.596 1.752Zm14.94 32.16-3.628 1.685.024.052.026.052 3.578-1.789Zm.66 3.48-3.928-.755-.015.073-.011.074 3.954.608Zm-1.5 2.4-2.219-3.328-.038.025-.037.026 2.294 3.277Zm-6.72-.24-2.604 3.037.035.03.036.029 2.533-3.096Zm-2.28-3.48 3.681-1.565-3.681 1.565Zm-3.24-7.62 2.355-3.233-11.702-8.525 5.666 13.323 3.681-1.565Zm4.2 3.06v4h12.283l-9.928-7.233-2.355 3.233Zm-24.72 0-2.334-3.249-10.091 7.249h12.425v-4Zm4.26-3.06 3.681 1.565 5.591-13.15-11.606 8.336 2.334 3.249Zm-3.24 7.62 3.647 1.641.017-.038.017-.038-3.681-1.565Zm-2.22 3.48-2.751-2.904 2.75 2.904Zm13.5-30.24v-4h-2.662l-1.028 2.455 3.69 1.545Zm-6.96 16.62-3.456 2.016 4.045 6.933 3.1-7.404-3.689-1.545Zm-1.68-2.88v-4h-6.965l3.51 6.016 3.455-2.016Zm17.46 0 3.455 2.016 3.509-6.016h-6.964v4Zm-1.68 2.88-3.685 1.556 3.111 7.366 4.029-6.906-3.455-2.016Zm-7.02-16.62 3.684-1.556-1.032-2.444h-2.652v4Zm-17.1 27.32c-.632 0-.855-.137-.902-.168l-4.437 6.656c1.633 1.089 3.49 1.512 5.339 1.512v-8Zm-.795-.095c-.027-.019-.033-.026-.026-.02a.346.346 0 0 1 .065.102c.005.013.002.011-.002-.011l-7.845 1.568c.402 2.01 1.502 3.688 3.158 4.871l4.65-6.51Zm.043.1c-.006-.027-.062-.35.276-1.122l-7.329-3.206c-.782 1.788-1.198 3.785-.803 5.838l7.856-1.51Zm.24-1.04 14.939-32.16-7.255-3.37-14.94 32.16 7.255 3.37Zm14.943-32.169c.524-1.135 1.007-1.614 1.285-1.807l-4.553-6.578c-1.802 1.248-3.079 3.048-3.995 5.033l7.263 3.352Zm1.227-1.768c.391-.26.831-.408 1.442-.408v-8c-2.11 0-4.11.572-5.879 1.752l4.437 6.656Zm1.442-.408c.612 0 .954.147 1.202.326l4.675-6.492c-1.751-1.261-3.77-1.834-5.877-1.834v8Zm1.263.369c.304.21.814.72 1.381 1.883l7.192-3.504c-.954-1.958-2.244-3.728-4.02-4.957l-4.553 6.578Zm1.349 1.816 14.94 32.16 7.255-3.37-14.94-32.16-7.255 3.37Zm14.99 32.264c.384.767.294 1.018.31.936l7.856 1.51c.415-2.162-.114-4.231-1.011-6.024l-7.155 3.578Zm.284 1.083c-.007.045-.003-.021.067-.132a.759.759 0 0 1 .168-.188l4.437 6.656c1.819-1.212 2.912-3.023 3.235-5.12l-7.907-1.216Zm.16-.269c-.008.005-.042.029-.135.055a2.145 2.145 0 0 1-.571.062v8c1.83 0 3.681-.434 5.293-1.563l-4.587-6.554Zm-.706.117c-1.047 0-1.264-.238-1.187-.176l-5.066 6.192c1.836 1.502 4.099 1.984 6.253 1.984v-8Zm-1.117-.117c-.18-.154-.639-.684-1.202-2.008l-7.363 3.13c.798 1.876 1.858 3.666 3.358 4.952l5.207-6.074Zm-1.202-2.008-3.24-7.62-7.362 3.13 3.24 7.62 7.362-3.13Zm-9.277-2.822 4.2 3.06 4.711-6.466-4.2-3.06-4.711 6.466Zm6.556-4.173h-24.72v8h24.72v-8Zm-22.387 7.249 4.26-3.06-4.667-6.498-4.26 3.06 4.667 6.498Zm-1.754-7.874-3.24 7.62 7.362 3.13 3.24-7.62-7.362-3.13Zm-3.207 7.544c-.631 1.402-1.113 2.018-1.323 2.217l5.502 5.808c1.31-1.241 2.308-2.945 3.116-4.743l-7.295-3.282Zm-1.323 2.217c.13-.124.213-.134.125-.106-.105.032-.368.09-.854.09v8c2.09 0 4.434-.474 6.23-2.176l-5.501-5.808Zm12.561-28.881-6.96 16.62 7.379 3.09 6.96-16.62-7.379-3.09Zm.185 16.15-1.68-2.88-6.91 4.03 1.68 2.88 6.91-4.03Zm-5.135 3.135h17.46v-8h-17.46v8Zm14.004-6.015-1.68 2.88 6.911 4.03 1.68-2.88-6.911-4.03Zm5.46 3.339-7.02-16.62-7.369 3.112 7.02 16.62 7.369-3.112ZM108.497 72.22h-.12v8h.12v-8Zm34.267 32.74 1.889-3.526-1.889 3.526Zm-7.74-7.62-3.525 1.891.009.017.009.016 3.507-1.924Zm-1.14-20.46-3.729-1.447-.01.024-.009.025 3.748 1.398Zm4.44-6.9-2.799-2.857-.015.014-.015.015 2.829 2.828Zm7.08-4.38 1.362 3.76.015-.005.015-.005-1.392-3.75Zm15.12-.9-.877 3.903.046.01.046.01.785-3.923Zm5.28 1.86-1.935 3.501.023.013.023.012 1.889-3.526Zm2.34 2.28-3.609 1.726 3.609-1.726Zm.42 2.82-3.946-.658-.013.08-.01.082 3.969.496Zm-3.18 4.14 1.052 3.859.081-.022.079-.025-1.212-3.812Zm-2.88-.42 1.788-3.578-.048-.024-.049-.023-1.691 3.625Zm-3.6-1.26-1.064 3.856.077.021.078.018.909-3.895Zm-9.9.96 1.957 3.489.013-.008.014-.008-1.984-3.473Zm-3.72 17.46-3.639 1.661.007.015.007.016 3.625-1.692Zm3.72 4.14-2.021 3.452.049.029.05.027 1.922-3.508Zm9.6 1.02.784 3.922.063-.012.062-.015-.909-3.895Zm3.54-1.26-1.591-3.67-.075.032-.073.036 1.739 3.602Zm3.18-.42-1.01 3.87.02.006.019.005.971-3.881Zm2.28 1.44-3.158 2.456.042.053.043.052 3.073-2.561Zm1.14 2.52-3.946.658.002.013.003.014 3.941-.685Zm-.42 2.76-3.609-1.726-.031.065-.029.066 3.669 1.595Zm-2.16 2.22-1.897-3.522-.082.044-.079.048 2.058 3.43Zm-5.22 1.98-.9-3.898-.008.002-.009.002.917 3.894Zm-6.12-3.28c-4.17 0-7.51-.8-10.171-2.226l-3.778 7.052c4.059 2.174 8.758 3.174 13.949 3.174v-8Zm-10.171-2.226c-2.691-1.441-4.703-3.431-6.123-6.018l-7.013 3.848c2.18 3.973 5.328 7.063 9.358 9.222l3.778-7.052Zm-6.105-5.985c-1.395-2.601-2.164-5.769-2.164-9.629h-8c0 4.94.991 9.452 3.115 13.411l7.049-3.782Zm-2.164-9.629c0-2.872.437-5.37 1.247-7.542l-7.495-2.796c-1.189 3.187-1.752 6.65-1.752 10.338h8Zm1.229-7.493c.851-2.193 2.035-4.014 3.539-5.519l-5.657-5.656c-2.336 2.335-4.111 5.114-5.34 8.28l7.458 2.895Zm3.51-5.49c1.523-1.492 3.383-2.657 5.643-3.476l-2.725-7.522c-3.26 1.181-6.12 2.936-8.516 5.284l5.598 5.714Zm5.673-3.487c2.288-.85 4.946-1.31 8.028-1.31v-8c-3.879 0-7.5.58-10.813 1.81l2.785 7.5Zm8.028-1.31c1.519 0 3.125.182 4.823.563l1.753-7.806c-2.222-.499-4.416-.757-6.576-.757v8Zm4.915.582c1.666.333 3.026.829 4.13 1.439l3.869-7.002c-1.935-1.07-4.096-1.814-6.43-2.281l-1.569 7.844Zm4.176 1.464c.283.152.441.28.522.359a.431.431 0 0 1 .098.12l7.217-3.45c-.889-1.86-2.376-3.18-4.059-4.08l-3.778 7.05Zm.62.48c.104.216.101.327.083.436l7.891 1.316c.302-1.81.02-3.58-.757-5.204l-7.217 3.452Zm.06.598a1.413 1.413 0 0 1-.272.703l6.441 4.746a9.413 9.413 0 0 0 1.769-4.457l-7.938-.992Zm-.272.703c-.049.067-.078.088-.081.09-.003.002-.019.015-.071.031l2.425 7.624a8.21 8.21 0 0 0 4.168-3l-6.441-4.745Zm.008.074a.788.788 0 0 1 .25-.024c.016.002-.076-.009-.289-.115l-3.577 7.156c1.67.835 3.653 1.265 5.721.701l-2.105-7.718Zm-.136-.186a22.396 22.396 0 0 0-4.382-1.53l-1.818 7.79c.911.213 1.849.538 2.817.99l3.383-7.25Zm-4.228-1.491a17.697 17.697 0 0 0-4.723-.624v8c.943 0 1.804.117 2.596.336l2.127-7.712Zm-4.723-.624c-2.984 0-5.793.578-8.225 1.967l3.969 6.946c.928-.53 2.28-.913 4.256-.913v-8Zm-8.197 1.951c-2.413 1.354-4.215 3.364-5.388 5.878l7.249 3.383c.507-1.087 1.185-1.797 2.053-2.283l-3.914-6.978Zm-5.388 5.878c-1.155 2.473-1.635 5.31-1.635 8.351h8c0-2.239.359-3.842.884-4.968l-7.249-3.383Zm-1.635 8.351c0 3.046.482 5.886 1.621 8.381l7.277-3.322c-.541-1.185-.898-2.825-.898-5.059h-8Zm1.635 8.412c1.167 2.5 2.95 4.51 5.324 5.9l4.041-6.904c-.906-.53-1.603-1.28-2.116-2.38l-7.249 3.383Zm5.423 5.956c2.418 1.324 5.203 1.872 8.162 1.872v-8c-2.001 0-3.377-.372-4.319-.888l-3.843 7.016Zm8.162 1.872c1.344 0 2.73-.155 4.144-.438l-1.569-7.844c-.985.197-1.84.282-2.575.282v8Zm4.269-.465a20.992 20.992 0 0 0 4.37-1.553l-3.478-7.204c-.907.438-1.81.757-2.71.967l1.818 7.79Zm4.221-1.485c.684-.296.798-.163.58-.22l2.019-7.74c-2.058-.537-4.064-.124-5.78.62l3.181 7.34Zm.619-.21a.789.789 0 0 1 .109.035l.016.007a.157.157 0 0 1-.023-.017l-.009-.01 6.315-4.91c-1.157-1.488-2.718-2.428-4.467-2.866l-1.941 7.762Zm.178.121c.127.153.219.329.267.617l7.891-1.316a9.197 9.197 0 0 0-2.012-4.423l-6.146 5.122Zm.272.644c.004.026.028.106-.088.349l7.217 3.452c.764-1.597 1.068-3.357.752-5.171l-7.881 1.37Zm-.148.48c-.001.004-.005.017-.038.051a1.455 1.455 0 0 1-.35.242l3.793 7.044c1.684-.907 3.113-2.264 3.932-4.147l-7.337-3.19Zm-.549.385c-.95.57-2.272 1.099-4.062 1.512l1.799 7.796c2.37-.547 4.528-1.338 6.379-2.448l-4.116-6.86Zm-4.079 1.516a22.59 22.59 0 0 1-5.203.614v8c2.356 0 4.704-.278 7.036-.826l-1.833-7.788Zm17.976 2.754-1.767 3.589.033.016.033.016 1.701-3.621Zm-6-5.4-3.425 2.067 3.425-2.067Zm-.12-16.2-3.451-2.023-.005.01-.006.009 3.462 2.004Zm5.52-5.4 1.932 3.502.01-.005.01-.006-1.952-3.491Zm14.04-.9-1.486 3.714.036.014.036.014 1.414-3.742Zm4.62 3.06-2.913 2.742.02.021.021.022 2.872-2.785Zm2.88 4.8-3.787 1.29.012.035.013.036 3.762-1.361Zm.36 8.1 2.533 3.096.08-.066.078-.07-2.691-2.96Zm-20.46.54h-4v4h4v-4Zm0-5.04v-4h-4v4h4Zm13.32 0 2.522 3.105 8.744-7.105h-11.266v4Zm-.96.78h-4v8.404l6.522-5.3-2.522-3.104Zm-2.4-5.7-2.136 3.382.039.024.039.024 2.058-3.43Zm-6.12.18 2.147 3.375.019-.012.019-.013-2.185-3.35Zm-2.04 2.52-3.677-1.576 3.677 1.576Zm1.14 10.86-2.829 2.828.046.046.047.044L181.783 98Zm8.88 1.5.703 3.938.054-.01.053-.011-.81-3.917Zm3.3-.96 1.436 3.733-1.436-3.733Zm2.7-.18-1.383 3.753.088.033.09.028 1.205-3.814Zm1.74 1.32-3.392 2.12.078.126.088.119 3.226-2.365Zm.72 2.1-3.995.2v.01l3.995-.21Zm-.54 2.28 3.496 1.943.022-.04.022-.04-3.54-1.863Zm-1.98 1.68-1.595-3.668-.034.015-.034.015 1.663 3.638Zm-4.5 1.44-.785-3.922-.009.002-.01.002.804 3.918Zm-4.74-3.52c-3.147 0-5.661-.542-7.66-1.481l-3.401 7.242c3.282 1.541 7.008 2.239 11.061 2.239v-8Zm-7.593-1.449c-1.963-.966-3.366-2.26-4.342-3.878l-6.85 4.134c1.823 3.021 4.421 5.328 7.658 6.922l3.534-7.178Zm-4.342-3.878c-.965-1.599-1.525-3.599-1.525-6.153h-8c0 3.766.84 7.246 2.675 10.287l6.85-4.134Zm-1.525-6.153c0-2.446.525-4.393 1.442-5.976l-6.924-4.008c-1.724 2.977-2.518 6.35-2.518 9.984h8Zm1.431-5.957c1.001-1.71 2.321-2.994 4.001-3.92l-3.864-7.005c-2.96 1.633-5.321 3.948-7.039 6.88l6.902 4.045Zm4.021-3.932c1.7-.95 3.695-1.471 6.088-1.471v-8c-3.607 0-6.973.8-9.993 2.489l3.905 6.982Zm6.088-1.471c1.759 0 3.246.287 4.514.794l2.971-7.428c-2.331-.933-4.844-1.366-7.485-1.366v8Zm4.586.822c1.249.472 2.271 1.156 3.121 2.06l5.826-5.483c-1.71-1.817-3.768-3.172-6.12-4.06l-2.827 7.483Zm3.162 2.103c.836.862 1.5 1.938 1.965 3.304l7.573-2.578c-.815-2.395-2.07-4.518-3.795-6.296l-5.743 5.57Zm1.99 3.376c.499 1.38.782 3.01.782 4.939h8c0-2.71-.398-5.28-1.259-7.66l-7.523 2.72Zm.782 4.939c0 .044-.007-.09.079-.327.095-.26.277-.567.57-.833l5.382 5.92c1.533-1.395 1.969-3.24 1.969-4.76h-8Zm.807-1.296c.334-.273.617-.356.682-.373.061-.016-.003.009-.249.009v8c1.302 0 3.13-.215 4.633-1.444l-5.066-6.192Zm.433-.364h-18.36v8h18.36v-8Zm-14.36 4v-5.04h-8v5.04h8Zm-4-1.04h13.32v-8h-13.32v8Zm10.797-7.105-.96.78 5.045 6.21.96-.78-5.045-6.21Zm5.563 3.885c0-1.79-.235-3.591-.932-5.195l-7.336 3.19c.102.236.268.835.268 2.005h8Zm-.932-5.195c-.706-1.624-1.84-2.993-3.41-3.935l-4.116 6.86c.03.018.096.049.19.265l7.336-3.19Zm-3.332-3.887c-1.561-.986-3.317-1.338-5.016-1.338v8c.62 0 .784.127.744.102l4.272-6.764Zm-5.016-1.338c-1.913 0-3.774.473-5.425 1.55l4.37 6.7c.189-.123.488-.25 1.055-.25v-8Zm-5.388 1.525c-1.667 1.061-2.826 2.587-3.569 4.32l7.353 3.15c.218-.507.419-.662.511-.72l-4.295-6.75Zm-3.569 4.32c-.758 1.768-1.043 3.745-1.043 5.775h8c0-1.33.194-2.153.396-2.624l-7.353-3.152Zm-1.043 5.775v.54h8v-.54h-8Zm0 .54c0 3.272.69 6.607 3.031 8.948l5.657-5.656c-.139-.14-.688-.884-.688-3.292h-8Zm3.124 9.038c2.32 2.175 5.461 2.882 8.616 2.882v-8c-2.125 0-2.905-.493-3.144-.718l-5.472 5.836Zm8.616 2.882c1.172 0 2.414-.132 3.703-.362l-1.406-7.876c-.952.17-1.71.238-2.297.238v8Zm3.81-.383c1.36-.281 2.67-.661 3.926-1.144l-2.872-7.466c-.825.317-1.714.577-2.675.776l1.621 7.834Zm3.926-1.144c.229-.088.317-.089.285-.087a.756.756 0 0 1-.143-.007 1.202 1.202 0 0 1-.261-.066l2.766-7.506c-1.964-.724-3.914-.418-5.519.2l2.872 7.466Zm.059-.099a.765.765 0 0 1-.208-.117 1.006 1.006 0 0 1-.239-.257l6.784-4.24c-.934-1.495-2.315-2.505-3.928-3.014l-2.409 7.628Zm-.281-.129a.365.365 0 0 1-.048-.093l-.006-.019a.305.305 0 0 1 .005.047l7.99-.4c-.076-1.519-.551-2.986-1.49-4.266l-6.451 4.731Zm-.049-.055c0-.01.002-.011-.002.008a.949.949 0 0 1-.083.199l7.08 3.726c.691-1.314 1.077-2.785.994-4.353l-7.989.42Zm-.042.127a.698.698 0 0 1 .114-.147c.012-.01-.036.034-.192.102l3.19 7.336c1.546-.672 2.968-1.761 3.881-3.405l-6.993-3.886Zm-.146-.015a16.414 16.414 0 0 1-3.622 1.156l1.569 7.844a24.399 24.399 0 0 0 5.379-1.724l-3.326-7.276Zm-3.641 1.16a19.561 19.561 0 0 1-3.936.398v8c1.869 0 3.718-.187 5.544-.562l-1.608-7.836Zm18.965 3.978.602-3.954-.037-.006-.036-.005-.529 3.965Zm-4.92-1.38 1.67-3.635-.091-.042-.093-.037-1.486 3.714Zm-2.16-1.62-3.448 2.028.044.073.046.072 3.358-2.173Zm-.6-2.16-3.994-.21-.006.105v.105h4Zm.66-2.04-3.296-2.266-.016.023-.016.024 3.328 2.219Zm1.68-1.32 1.331 3.772.06-.021.059-.023-1.45-3.728Zm2.4.06-1.367 3.759.011.004.011.004 1.345-3.767Zm4.5 1.32-.83 3.913.067.014.068.012.695-3.939Zm7.08-.24 2.12 3.392.074-.046.072-.05-2.266-3.296Zm.3-3.06-2.499 3.124.072.057.074.054 2.353-3.235Zm-1.74-.66-.64 3.948.008.002.008.001.624-3.951Zm-6.66-1.08-.699 3.939.03.005.029.004.64-3.948Zm-5.76-2.7-2.869 2.787.02.02.021.021 2.828-2.828Zm-.3-10.8-3.139-2.479-.009.011 3.148 2.468Zm4.86-3.48 1.46 3.724.019-.008.019-.007-1.498-3.709Zm12.06-.84-.743 3.93.051.01.052.008.64-3.948Zm4.32 1.38-1.748 3.598.115.056.119.048 1.514-3.702Zm1.86 1.56 3.535-1.872-3.535 1.872Zm.42 2.16 3.976.442.001-.012.001-.011-3.978-.419Zm-.78 2.04-3.296-2.266-.016.023-.016.024 3.328 2.219Zm-1.68 1.26 1.071 3.854.098-.027.096-.032-1.265-3.795Zm-2.52-.18-1.466 3.722.1.039.101.034 1.265-3.795Zm-3.54-1.14-.933 3.89.017.004.017.004.899-3.898Zm-6.3.3-2.173-3.358 2.173 3.358Zm-.48 3-2.828 2.828.083.084.088.078 2.657-2.99Zm1.68.66.675-3.943-.026-.004-.025-.004-.624 3.951Zm6.66 1.14-.675 3.943.029.005.029.004.617-3.952Zm5.88 2.64-2.828 2.828.041.042.043.04 2.744-2.91Zm-1.62 12.96 2.315 3.262.017-.012.018-.013-2.35-3.237Zm-9.9-1.36c-1.547 0-3.146-.123-4.798-.374l-1.204 7.908c2.028.309 4.03.466 6.002.466v-8Zm-4.871-.385c-1.45-.193-2.7-.554-3.779-1.05l-3.34 7.27c1.881.864 3.911 1.423 6.061 1.71l1.058-7.93Zm-3.963-1.129a1.693 1.693 0 0 1-.376-.191c-.024-.018.025.014.088.112l-6.716 4.346c1.017 1.571 2.514 2.554 4.033 3.161l2.971-7.428Zm-.198.066a.437.437 0 0 1-.044-.093c-.001-.005-.004-.015-.004-.039h-8c0 1.501.405 2.918 1.152 4.188l6.896-4.056Zm-.053.078c.001-.029.004-.046.005-.054l.001-.005-.007.018-.006.01-6.656-4.438a7.974 7.974 0 0 0-1.326 4.049l7.989.42Zm-.039.016c.012-.017-.009.018-.075.069a.738.738 0 0 1-.21.117l-2.662-7.544c-1.541.544-2.765 1.546-3.645 2.826l6.592 4.532Zm-.166.142c-.151.059-.3.079-.41.076-.099-.003-.108-.022-.007.015l2.734-7.518c-1.589-.578-3.41-.731-5.217-.029l2.9 7.456Zm-.395.099c1.798.642 3.475 1.139 5.015 1.466l1.66-7.826c-1.1-.233-2.423-.616-3.985-1.174l-2.69 7.534Zm5.15 1.492c1.564.276 3.098.421 4.595.421v-8c-.982 0-2.049-.095-3.205-.3l-1.39 7.879Zm4.595.421c1.632 0 3.659-.182 5.3-1.208l-4.24-6.784c.242-.15.337-.133.103-.089-.214.04-.587.081-1.163.081v8Zm5.446-1.304c1.547-1.063 2.694-2.776 2.694-4.976h-8c0-.317.083-.697.287-1.055.193-.338.411-.509.487-.561l4.532 6.592Zm2.694-4.976c0-1.727-.715-3.457-2.307-4.615l-4.706 6.47a2.459 2.459 0 0 1-.76-.924 2.19 2.19 0 0 1-.227-.931h8Zm-2.161-4.504c-1.148-.918-2.487-1.309-3.615-1.487l-1.248 7.902c.171.027.23.051.21.044-.02-.008-.159-.063-.345-.212l4.998-6.246Zm-3.599-1.484-6.66-1.08-1.28 7.896 6.66 1.08 1.28-7.896Zm-6.601-1.07c-1.921-.341-3.005-.965-3.63-1.59l-5.657 5.656c2.095 2.095 4.85 3.271 7.889 3.81l1.398-7.877Zm-3.59-1.55c-.527-.541-.909-1.307-.909-2.672h-8c0 3.115.978 5.99 3.171 8.247l5.738-5.574Zm-.909-2.672c0-1.286.339-2.172.888-2.873l-6.296-4.934c-1.771 2.259-2.592 4.933-2.592 7.807h8Zm.88-2.861c.705-.894 1.712-1.66 3.18-2.235l-2.92-7.448c-2.612 1.024-4.845 2.579-6.539 4.725l6.279 4.958Zm3.218-2.25c1.521-.614 3.378-.969 5.642-.969v-8c-3.095 0-5.999.485-8.638 1.551l2.996 7.418Zm5.642-.969c1.597 0 2.984.125 4.177.35l1.487-7.86c-1.767-.335-3.661-.49-5.664-.49v8Zm4.28.368c1.081.176 2.149.514 3.212 1.03l3.496-7.196a19.54 19.54 0 0 0-5.428-1.73l-1.28 7.896Zm3.446 1.134c.122.05.125.07.069.023a.839.839 0 0 1-.112-.115 1.087 1.087 0 0 1-.118-.178l7.07-3.744c-.894-1.689-2.344-2.762-3.88-3.39l-3.029 7.404Zm-.161-.27c.003.006.001.003-.003-.01a.41.41 0 0 1-.02-.103v-.018l7.956.838a7.692 7.692 0 0 0-.863-4.45l-7.07 3.743Zm-.02-.154c-.002.019-.007.079-.101.216l6.592 4.532a8.419 8.419 0 0 0 1.46-3.864l-7.951-.884Zm-.133.263a.91.91 0 0 1 .383-.316l2.53 7.59c1.516-.506 2.823-1.456 3.743-2.836l-6.656-4.438Zm.578-.375c.132-.037.206-.03.185-.03a1.67 1.67 0 0 1-.37-.09l-2.53 7.589c1.454.485 3.141.716 4.856.24l-2.141-7.71Zm.016-.048c-1.448-.57-2.823-1.02-4.106-1.316l-1.799 7.796c.796.183 1.781.494 2.973.964l2.932-7.444Zm-4.072-1.308c-1.256-.3-2.512-.47-3.754-.47v8c.518 0 1.142.07 1.887.25l1.867-7.78Zm-3.754-.47c-1.764 0-3.939.193-5.653 1.302l4.346 6.716c-.245.159-.332.13-.048.077.261-.05.697-.095 1.355-.095v-8Zm-5.653 1.302c-1.567 1.014-2.847 2.726-2.847 5.038h8c0 .363-.101.776-.326 1.146-.208.343-.431.5-.481.532l-4.346-6.716Zm-2.847 5.038c0 1.555.584 3.02 1.712 4.148l5.657-5.656c.168.168.343.408.468.713s.163.585.163.795h-8Zm1.883 4.31c1.179 1.048 2.609 1.447 3.713 1.621l1.248-7.902c-.168-.027-.204-.048-.151-.027.053.021.257.108.505.328l-5.315 5.98Zm3.662 1.613 6.66 1.14 1.35-7.886-6.66-1.14-1.35 7.886Zm6.718 1.149c2.009.314 3.085.933 3.669 1.516l5.657-5.656c-2.137-2.137-4.981-3.278-8.091-3.764l-1.235 7.904Zm3.753 1.598c.451.425.844 1.09.844 2.49h8c0-3.16-1.007-6.095-3.356-8.31l-5.488 5.82Zm.844 2.49c0 2.045-.694 3.325-2.069 4.323l4.699 6.474c3.584-2.602 5.37-6.362 5.37-10.797h-8Zm-2.035 4.298c-1.601 1.136-4.006 1.902-7.585 1.902v8c4.661 0 8.856-.994 12.215-3.378l-4.63-6.524Zm16.121 5.482.601-3.954-.036-.006-.037-.005-.528 3.965Zm-4.92-1.38 1.67-3.635-.091-.042-.094-.037-1.485 3.714Zm-2.16-1.62-3.448 2.028.043.073.046.072 3.359-2.173Zm-.6-2.16-3.995-.21-.005.105v.105h4Zm.66-2.04-3.296-2.266-.017.023-.015.024 3.328 2.219Zm1.68-1.32 1.331 3.772.06-.021.059-.023-1.45-3.728Zm2.4.06-1.367 3.759.011.004.01.004 1.346-3.767Zm4.5 1.32-.83 3.913.067.014.068.012.695-3.939Zm7.08-.24 2.12 3.392.074-.046.072-.05-2.266-3.296Zm.3-3.06-2.499 3.124.072.057.074.054 2.353-3.235Zm-1.74-.66-.641 3.948.009.002.008.001.624-3.951Zm-6.66-1.08-.699 3.939.029.005.029.004.641-3.948Zm-5.76-2.7-2.869 2.787.02.02.02.021 2.829-2.828Zm-.3-10.8-3.14-2.479-.008.011 3.148 2.468Zm4.86-3.48 1.46 3.724.019-.008.019-.007-1.498-3.709Zm12.06-.84-.744 3.93.052.01.051.008.641-3.948Zm4.32 1.38-1.748 3.598.115.056.118.048 1.515-3.702Zm1.86 1.56 3.535-1.872-3.535 1.872Zm.42 2.16 3.975.442.002-.012.001-.011-3.978-.419Zm-.78 2.04-3.296-2.266-.017.023-.015.024 3.328 2.219Zm-1.68 1.26 1.07 3.854.098-.027.097-.032-1.265-3.795Zm-2.52-.18-1.466 3.722.099.039.102.034 1.265-3.795Zm-3.54-1.14-.934 3.89.017.004.017.004.9-3.898Zm-6.3.3-2.173-3.358 2.173 3.358Zm-.48 3-2.829 2.828.083.084.088.078 2.658-2.99Zm1.68.66.675-3.943-.026-.004-.025-.004-.624 3.951Zm6.66 1.14-.675 3.943.029.005.028.004.618-3.952Zm5.88 2.64-2.829 2.828.042.042.043.04 2.744-2.91Zm-1.62 12.96 2.315 3.262.017-.012.017-.013-2.349-3.237Zm-9.9-1.36c-1.548 0-3.146-.123-4.799-.374l-1.203 7.908c2.028.309 4.029.466 6.002.466v-8Zm-4.872-.385c-1.45-.193-2.699-.554-3.778-1.05l-3.34 7.27c1.881.864 3.911 1.423 6.061 1.71l1.057-7.93Zm-3.963-1.129a1.7 1.7 0 0 1-.375-.191c-.025-.018.025.014.088.112l-6.717 4.346c1.017 1.571 2.515 2.554 4.033 3.161l2.971-7.428Zm-.198.066c-.033-.057-.041-.086-.043-.093a.115.115 0 0 1-.004-.039h-8c0 1.501.405 2.918 1.152 4.188l6.895-4.056Zm-.053.078a.39.39 0 0 1 .006-.054l.001-.005-.008.018-.005.01-6.656-4.438a7.985 7.985 0 0 0-1.327 4.049l7.989.42Zm-.038.016c.012-.017-.01.018-.075.069a.766.766 0 0 1-.21.117l-2.663-7.544c-1.54.544-2.764 1.546-3.644 2.826l6.592 4.532Zm-.166.142c-.152.059-.3.079-.41.076-.099-.003-.108-.022-.007.015l2.734-7.518c-1.59-.578-3.411-.731-5.217-.029l2.9 7.456Zm-.396.099c1.799.642 3.476 1.139 5.016 1.466l1.66-7.826c-1.1-.233-2.423-.616-3.985-1.174l-2.691 7.534Zm5.151 1.492c1.564.276 3.097.421 4.595.421v-8c-.983 0-2.049-.095-3.205-.3l-1.39 7.879Zm4.595.421c1.632 0 3.659-.182 5.3-1.208l-4.24-6.784c.241-.15.337-.133.103-.089-.214.04-.587.081-1.163.081v8Zm5.446-1.304c1.546-1.063 2.694-2.776 2.694-4.976h-8c0-.317.082-.697.287-1.055.193-.338.411-.509.487-.561l4.532 6.592Zm2.694-4.976c0-1.727-.715-3.457-2.308-4.615l-4.705 6.47a2.47 2.47 0 0 1-.761-.924 2.2 2.2 0 0 1-.226-.931h8Zm-2.161-4.504c-1.149-.918-2.488-1.309-3.615-1.487l-1.248 7.902c.17.027.23.051.21.044-.02-.008-.159-.063-.345-.212l4.998-6.246Zm-3.599-1.484-6.66-1.08-1.281 7.896 6.66 1.08 1.281-7.896Zm-6.602-1.07c-1.92-.341-3.005-.965-3.63-1.59l-5.657 5.656c2.095 2.095 4.851 3.271 7.89 3.81l1.397-7.877Zm-3.589-1.55c-.527-.541-.909-1.307-.909-2.672h-8c0 3.115.977 5.99 3.171 8.247l5.738-5.574Zm-.909-2.672c0-1.286.339-2.172.888-2.873l-6.296-4.934c-1.771 2.259-2.592 4.933-2.592 7.807h8Zm.879-2.861c.705-.894 1.713-1.66 3.181-2.235l-2.921-7.448c-2.611 1.024-4.844 2.579-6.539 4.725l6.279 4.958Zm3.219-2.25c1.521-.614 3.377-.969 5.642-.969v-8c-3.096 0-5.999.485-8.638 1.551l2.996 7.418Zm5.642-.969c1.597 0 2.983.125 4.176.35l1.487-7.86c-1.767-.335-3.66-.49-5.663-.49v8Zm4.279.368c1.082.176 2.15.514 3.213 1.03l3.495-7.196a19.523 19.523 0 0 0-5.427-1.73l-1.281 7.896Zm3.446 1.134c.123.05.126.07.069.023a1.027 1.027 0 0 1-.229-.293l7.07-3.744c-.895-1.689-2.345-2.762-3.881-3.39l-3.029 7.404Zm-.16-.27c.003.006.001.003-.003-.01a.29.29 0 0 1-.02-.103v-.018l7.956.838a7.692 7.692 0 0 0-.863-4.45l-7.07 3.743Zm-.021-.154c-.002.019-.006.079-.1.216l6.592 4.532a8.429 8.429 0 0 0 1.459-3.864l-7.951-.884Zm-.132.263a.89.89 0 0 1 .383-.316l2.53 7.59c1.516-.506 2.822-1.456 3.743-2.836l-6.656-4.438Zm.577-.375c.133-.037.207-.03.186-.03a1.658 1.658 0 0 1-.37-.09l-2.53 7.589c1.454.485 3.14.716 4.855.24l-2.141-7.71Zm.017-.048c-1.448-.57-2.823-1.02-4.107-1.316l-1.799 7.796c.796.183 1.782.494 2.974.964l2.932-7.444Zm-4.073-1.308c-1.256-.3-2.511-.47-3.753-.47v8c.518 0 1.142.07 1.886.25l1.867-7.78Zm-3.753-.47c-1.764 0-3.94.193-5.653 1.302l4.346 6.716c-.246.159-.332.13-.048.077.26-.05.696-.095 1.355-.095v-8Zm-5.653 1.302c-1.567 1.014-2.847 2.726-2.847 5.038h8c0 .363-.101.776-.326 1.146-.209.343-.432.5-.481.532l-4.346-6.716ZM237.53 86.3c0 1.555.583 3.02 1.711 4.148l5.657-5.656c.169.168.344.408.469.713.124.305.163.585.163.795h-8Zm1.882 4.31c1.179 1.048 2.609 1.447 3.714 1.621l1.248-7.902c-.169-.027-.205-.048-.152-.027.054.021.258.108.505.328l-5.315 5.98Zm3.663 1.613 6.66 1.14 1.35-7.886-6.66-1.14-1.35 7.886Zm6.717 1.149c2.01.314 3.086.933 3.669 1.516l5.657-5.656c-2.136-2.137-4.98-3.278-8.091-3.764l-1.235 7.904Zm3.754 1.598c.45.425.844 1.09.844 2.49h8c0-3.16-1.007-6.095-3.356-8.31l-5.488 5.82Zm.844 2.49c0 2.045-.694 3.325-2.07 4.323l4.699 6.474c3.585-2.602 5.371-6.362 5.371-10.797h-8Zm-2.035 4.298c-1.601 1.136-4.006 1.902-7.585 1.902v8c4.66 0 8.856-.994 12.215-3.378l-4.63-6.524Zm21.88 4.342-2.885 2.77.028.03.029.028 2.828-2.828Zm-1.44-32.4h4v-4h-4v4Zm-12.84-1.14-2.9 2.755.071.074.074.071 2.755-2.9Zm0-6.72-2.755-2.9-.037.035-.036.037 2.828 2.828Zm36.66 0-2.828 2.828.036.037.037.035 2.755-2.9Zm0 6.72 2.829 2.828-2.829-2.828Zm-12.78 1.14v-4h-4v4h4Zm-1.38 32.4 2.888 2.768.028-.03.028-.03-2.944-2.708Zm-4.14-2.56c-1.027 0-1.245-.262-1.251-.268l-5.657 5.656c1.914 1.914 4.416 2.612 6.908 2.612v-8Zm-1.194-.21c-.066-.069-.326-.352-.326-1.37h-8c0 2.502.701 4.979 2.555 6.91l5.771-5.54Zm-.326-1.37V73.7h-8v28.26h8Zm-4-32.26h-9.42v8h9.42v-8Zm-9.42 0c-.405 0-.619-.053-.7-.08-.064-.021-.027-.019.035.04l-5.51 5.8c1.768 1.68 4.028 2.24 6.175 2.24v-8Zm-.52.105c.047.05.051.081.033.03-.023-.067-.073-.26-.073-.635h-8c0 2.142.579 4.367 2.24 6.115l5.8-5.51Zm-.04-.605c0-.408.054-.608.073-.665.013-.038-.008.037-.104.133l-5.657-5.656c-1.757 1.756-2.312 4.055-2.312 6.188h8Zm-.105-.46c-.062.059-.099.061-.035.04.081-.027.295-.08.7-.08v-8c-2.147 0-4.407.56-6.175 2.24l5.51 5.8Zm.665-.04h29.88v-8h-29.88v8Zm29.88 0c.408 0 .608.054.665.073.038.013-.037-.008-.133-.105l5.657-5.656c-1.757-1.757-4.056-2.312-6.189-2.312v8Zm.605.04a.597.597 0 0 1-.091-.11c-.022-.035-.026-.05-.021-.035.014.038.067.216.067.605h8c0-2.188-.606-4.513-2.445-6.26l-5.51 5.8Zm-.045.46c0 .355-.049.527-.067.575-.011.031-.001-.003.039-.043l5.657 5.656c1.74-1.74 2.371-3.991 2.371-6.188h-8Zm-.028.532c.096-.097.171-.118.133-.105-.057.02-.257.073-.665.073v8c2.133 0 4.432-.555 6.189-2.312l-5.657-5.656Zm-.532-.032h-9.42v8h9.42v-8Zm-13.42 4v28.26h8V73.7h-8Zm0 28.26c0 1.062-.264 1.368-.323 1.432l5.887 5.416c1.781-1.936 2.436-4.39 2.436-6.848h-8Zm-.268 1.372c.02-.02.002.017-.151.07-.174.061-.517.138-1.101.138v8c2.501 0 5.101-.661 7.028-2.672l-5.776-5.536Zm19.956 3.068-1.756 3.594.016.008.017.008 1.723-3.61Zm-4.08-3.42-3.356 2.177.034.053.036.052 3.286-2.282Zm5.64-12.78.82 3.915.031-.006.03-.007-.881-3.902Zm13.2-.84h4v-4h-4v4Zm0 5.04v4h4v-4h-4Zm-7.2.36.784 3.922.058-.011.057-.013-.899-3.898Zm-2.22 1.02 2.702 2.949.065-.06.061-.06-2.828-2.829Zm.24 4.02-2.736 2.918.044.041.045.04 2.647-2.999Zm5.52.24-1.928-3.505-.039.021-.038.022 2.005 3.462Zm1.92-1.8 3.381 2.136.025-.039.024-.039-3.43-2.058Zm-.42-12.78-2.561 3.073.04.034.042.033 2.479-3.14Zm-7.02-.54.657 3.946.064-.011.063-.013-.784-3.922Zm-4.02 1.14 1.389 3.751.013-.005.013-.005-1.415-3.741Zm-4.56-1.26-3.448 2.028.043.073.046.072 3.359-2.173Zm-.6-2.22-3.995-.2-.005.1v.1h4Zm.78-2.28-3.243-2.342-.044.06-.042.063 3.329 2.219Zm2.34-1.68-1.405-3.745-.016.006-.015.006 1.436 3.733Zm5.28-1.44-.58-3.958-.007.001-.007.001.594 3.956Zm12.6 1.08-1.65 3.644.041.018.041.018 1.568-3.68Zm4.8 4.32-3.534 1.875.023.043.024.043 3.487-1.961Zm.36 23.58-2.954-2.697 2.954 2.697Zm-7.44 0-2.954 2.697.031.034.032.034 2.891-2.765Zm-1.26-5.58 3.676-1.576-7.676 1.576h4Zm.36.84 3.952.618.177-1.137-.453-1.057-3.676 1.576Zm-1.38 3.3 3.15 2.465-3.15-2.465Zm-2.82 2.16-1.637-3.65 1.637 3.65Zm-3.96-3.22c-1.785 0-3.199-.327-4.338-.87l-3.445 7.22c2.381 1.137 5.007 1.65 7.783 1.65v-8Zm-4.305-.854c-1.164-.569-1.975-1.279-2.55-2.108l-6.571 4.564c1.425 2.051 3.334 3.621 5.61 4.732l3.511-7.188Zm-2.48-2.003c-.511-.788-.795-1.702-.795-2.863h-8c0 2.599.675 5.045 2.084 7.217l6.711-4.354Zm-.795-2.863c0-1.468.368-2.109.648-2.419l-5.937-5.362c-1.96 2.17-2.711 4.929-2.711 7.781h8Zm.648-2.419c.328-.363 1.197-.975 3.252-1.406l-1.641-7.83c-2.905.61-5.636 1.757-7.548 3.874l5.937 5.362Zm3.313-1.42c2.069-.466 5.037-.741 9.019-.741v-8c-4.258 0-7.891.285-10.781.938l1.762 7.804Zm9.019-.741h3.3v-8h-3.3v8Zm-.7-4v5.04h8v-5.04h-8Zm4 1.04h-3.3v8h3.3v-8Zm-3.3 0c-1.738 0-3.364.131-4.8.462l1.799 7.796c.644-.149 1.618-.258 3.001-.258v-8Zm-4.685.438c-1.41.282-3.01.86-4.264 2.114l5.657 5.656c-.155.155-.266.202-.243.192a1.01 1.01 0 0 1 .119-.043c.071-.023.17-.049.3-.075l-1.569-7.844Zm-4.138 1.993c-1.399 1.283-2.017 2.98-2.017 4.689h8c0 .088-.016.293-.124.554-.112.27-.279.495-.454.655l-5.405-5.898Zm-2.017 4.689c0 1.965.734 3.801 2.224 5.198l5.471-5.836c.063.058.16.176.231.346.07.165.074.28.074.292h-8Zm2.313 5.279c1.642 1.449 3.672 1.901 5.527 1.901v-8c-.306 0-.441-.038-.457-.043-.006-.002.019.006.063.03a.884.884 0 0 1 .16.114l-5.293 5.998Zm5.527 1.901c1.604 0 3.194-.359 4.644-1.198l-4.009-6.924c-.07.041-.24.122-.635.122v8Zm4.567-1.155a9.192 9.192 0 0 0 3.374-3.169l-6.763-4.272a1.195 1.195 0 0 1-.466.431l3.855 7.01Zm3.423-3.247c.894-1.491 1.29-3.138 1.29-4.818h-8c0 .4-.085.593-.15.702l6.86 4.116Zm1.29-4.818v-6.96h-8v6.96h8Zm0-6.96c0-2.05-.544-4.528-2.662-6.2l-4.957 6.28a1.506 1.506 0 0 1-.294-.31 1.018 1.018 0 0 1-.121-.219c-.012-.032-.003-.018.009.058.012.077.025.204.025.391h8Zm-2.58-6.133c-1.855-1.546-4.349-1.827-6.34-1.827v8c.699 0 1.133.06 1.368.116.246.059.111.073-.149-.143l5.121-6.146Zm-6.34-1.827c-1.284 0-2.633.16-4.025.438l1.569 7.844c1.008-.201 1.819-.282 2.456-.282v-8Zm-3.898.414c-1.522.254-3.122.718-4.778 1.345l2.831 7.482c1.304-.493 2.385-.79 3.262-.935l-1.315-7.892Zm-4.752 1.335a2.359 2.359 0 0 1-.287.089c-.064.015-.09.016-.084.016.008-.001.05-.003.12.006.071.01.162.03.263.067l-2.765 7.506c1.967.725 3.93.411 5.532-.182l-2.779-7.502Zm.012.178a.46.46 0 0 1 .156.116c.015.016.021.025.02.024l-6.717 4.346a7.554 7.554 0 0 0 3.776 3.02l2.765-7.506Zm.265.285a.315.315 0 0 1-.047-.192h-8c0 1.503.385 2.944 1.152 4.248l6.895-4.056Zm-.052.008c.001-.022 0-.092.113-.261l-6.657-4.438c-.847 1.27-1.368 2.72-1.446 4.3l7.99.399Zm.027-.138c-.037.052.034-.096.533-.289l-2.871-7.466c-1.581.607-3.069 1.579-4.147 3.071l6.485 4.684Zm.502-.277c1.724-.646 3.208-1.04 4.469-1.23l-1.187-7.91c-1.939.29-3.975.856-6.091 1.65l2.809 7.49Zm4.455-1.227c1.488-.218 2.791-.318 3.921-.318v-8c-1.591 0-3.288.14-5.08.402l1.159 7.916Zm3.921-.318c2.927 0 5.015.434 6.45 1.084l3.3-7.288c-2.806-1.27-6.118-1.796-9.75-1.796v8Zm6.532 1.12c1.37.584 2.25 1.413 2.834 2.515l7.067-3.75c-1.495-2.818-3.816-4.869-6.766-6.125l-3.135 7.36Zm2.881 2.601c.64 1.136 1.107 2.877 1.107 5.479h8c0-3.478-.613-6.697-2.134-9.401l-6.973 3.922Zm1.107 5.479v12.12h8V90.02h-8Zm0 12.12c0 1.173-.281 1.396-.214 1.323l5.907 5.394c1.747-1.913 2.307-4.37 2.307-6.717h-8Zm-.214 1.323c.024-.027.046-.029-.003-.011-.069.026-.28.088-.703.088v8c2.384 0 4.814-.712 6.613-2.683l-5.907-5.394Zm-.706.077c-.453 0-.699-.064-.804-.102a.396.396 0 0 1-.077-.036c-.004-.003-.006-.003-.009-.007l-5.781 5.53c1.836 1.92 4.27 2.615 6.671 2.615v-8Zm-.827-.077c.067.073-.213-.15-.213-1.323h-8c0 2.347.559 4.804 2.306 6.717l5.907-5.394Zm-.213-1.323v-1.56h-8v1.56h8Zm-7.677.016.36.84 7.353-3.152-.36-.84-7.353 3.152Zm.084-1.354c-.106.681-.323 1.127-.577 1.453l6.3 4.93c1.185-1.514 1.888-3.268 2.182-5.147l-7.905-1.236Zm-.577 1.453c-.285.363-.687.697-1.307.975l3.273 7.3c1.7-.762 3.178-1.868 4.334-3.345l-6.3-4.93Zm-1.307.975c-.567.254-1.316.43-2.323.43v8c1.952 0 3.843-.344 5.596-1.13l-3.273-7.3Zm23.558 1.37-3.025 2.618.027.031.028.03 2.97-2.679Zm6.54-39.06-2.828 2.828.03.03.03.03 2.768-2.888Zm2.28 32.58-3.088 2.543.044.052.045.051 2.999-2.646Zm3.12.96.566 3.96.204-.029.2-.05-.97-3.881Zm1.02-.18v-4h-.221l-.221.024.442 3.976Zm1.5.78-3.407 2.096.057.092.061.089 3.289-2.277Zm-.3 6.36 3.088 2.543.035-.043.035-.044-3.158-2.456Zm-2.58 1.32.496 3.969.092-.011.092-.016-.68-3.942Zm-1.38.18.529 3.965-.529-3.965Zm-1.68-3.88c-3.172 0-4.732-.832-5.55-1.739l-5.94 5.358c2.862 3.173 6.983 4.381 11.49 4.381v-8Zm-5.495-1.678c-.918-1.06-1.725-3.068-1.725-6.742h-8c0 4.646.993 8.878 3.675 11.978l6.05-5.236Zm-1.725-6.742V69.56h-8v25.68h8Zm0-25.68c0-.54.072-.861.128-1.026a.77.77 0 0 1 .062-.14.106.106 0 0 1 .019-.026l-5.657-5.656c-1.905 1.904-2.552 4.412-2.552 6.848h8Zm.209-1.192c.013-.013.048-.049.17-.092.14-.05.42-.116.901-.116v-8c-2.418 0-4.857.68-6.728 2.552l5.657 5.656Zm1.071-.208c.511 0 .812.07.964.122.134.047.165.084.168.086l5.657-5.656c-1.888-1.888-4.362-2.552-6.789-2.552v8Zm1.192.268c.002.001.036.027.082.156.054.148.126.451.126.976h8c0-2.482-.694-5.012-2.672-6.908l-5.536 5.776Zm.208 1.132v25.32h8V69.56h-8Zm0 25.32c0 1.829.317 4.04 1.752 5.783l6.176-5.086c.175.213.186.34.154.22-.032-.126-.082-.413-.082-.917h-8Zm1.841 5.886c1.372 1.555 3.231 2.374 5.279 2.374v-8c.044 0 .188.01.374.094.187.083.301.19.345.24l-5.998 5.292Zm5.279 2.374c.471 0 .94-.034 1.406-.1l-1.132-7.92c-.094.014-.185.02-.274.02v8Zm1.81-.179c.131-.033.293-.063.492-.085l-.884-7.952c-.521.058-1.038.148-1.548.275l1.94 7.762Zm.05-.061c-.171 0-.534-.034-.96-.256a2.438 2.438 0 0 1-.947-.868l6.814-4.192c-1.142-1.856-3.026-2.684-4.907-2.684v8Zm-1.789-.943a2.083 2.083 0 0 1-.26-.492c-.018-.054-.008-.04.011.07.039.23.078.652.078 1.325h8c0-.927-.05-1.835-.191-2.665-.129-.757-.391-1.826-1.06-2.792l-6.578 4.554Zm-.171.903c0 .445-.046.704-.077.823-.03.112-.031.043.08-.099l6.315 4.912c1.329-1.71 1.682-3.797 1.682-5.636h-8Zm.072.637a.98.98 0 0 1 .135-.133.458.458 0 0 1 .066-.045s-.026.013-.087.033a2.214 2.214 0 0 1-.286.066l1.36 7.884c1.783-.308 3.639-1.082 4.988-2.719l-6.176-5.086Zm.012-.106c-.336.042-.809.104-1.413.184l1.058 7.93c.597-.08 1.044-.138 1.347-.176l-.992-7.938Zm-1.413.184c-.452.06-.834.085-1.151.085v8c.723 0 1.461-.055 2.209-.155l-1.058-7.93Zm9.208 2.585 2.829-2.828-2.829 2.828Zm7.86-40.62-2.828 2.828.03.03.031.03 2.767-2.888Zm1.44 23.82h-4v4h4v-4Zm.12 0v4h1.887l1.2-1.456-3.087-2.544Zm7.32-8.88-3.072-2.56-.007.007-.007.009 3.086 2.544Zm2.76-2.64 2.219 3.328.018-.011.017-.012-2.254-3.305Zm6.96.18-2.675 2.973 2.675-2.973Zm1.26 2.7-3.997.148 3.997-.148Zm-1.32 3.24-3.045-2.594-.008.01 3.053 2.584Zm-7.92 9.36h-4v10.92l7.054-8.336-3.054-2.584Zm0-3.72 3.131-2.49-7.131-8.961V89.6h4Zm8.88 11.16 3.146-2.471-.008-.01-.008-.01-3.13 2.491Zm1.08 3.3 3.954.608.002-.011.001-.011-3.957-.586Zm-1.56 2.52-2.352-3.235-.036.026-.036.027 2.424 3.182Zm-7.08.12-2.12 3.392.052.032.053.031 2.015-3.455Zm-2.88-2.76 3.163-2.449-.028-.036-.029-.036-3.106 2.521Zm-7.5-9.24 3.106-2.52-1.2-1.48h-1.906v4Zm-.12 0v-4h-4v4h4Zm-5.4 8.84c-.481 0-.761-.067-.9-.116-.123-.043-.158-.079-.171-.092l-5.657 5.656c1.871 1.872 4.31 2.552 6.728 2.552v-8Zm-1.071-.208c-.002-.003-.008-.008-.018-.025a.697.697 0 0 1-.062-.141c-.057-.165-.129-.485-.129-1.026h-8c0 2.436.648 4.944 2.552 6.848l5.657-5.656Zm-.209-1.192V69.56h-8v32.58h8Zm0-32.58c0-.54.072-.861.129-1.026a.702.702 0 0 1 .062-.14c.01-.018.016-.023.018-.026l-5.657-5.656c-1.904 1.904-2.552 4.412-2.552 6.848h8Zm.209-1.192c.013-.013.048-.049.171-.092.139-.05.419-.116.9-.116v-8c-2.418 0-4.857.68-6.728 2.552l5.657 5.656Zm1.071-.208c.512 0 .812.07.964.122.134.047.165.084.168.086l5.657-5.656c-1.888-1.888-4.362-2.552-6.789-2.552v8Zm1.193.268c.001.001.036.027.082.156.053.148.125.451.125.976h8c0-2.482-.694-5.012-2.672-6.908l-5.535 5.776Zm.207 1.132v19.8h8v-19.8h-8Zm4 23.8h.12v-8h-.12v8Zm3.207-1.456 7.32-8.88-6.173-5.088-7.32 8.88 6.173 5.088Zm7.306-8.863c.873-1.047 1.511-1.61 1.906-1.873l-4.437-6.656c-1.285.856-2.487 2.055-3.614 3.407l6.145 5.122Zm1.941-1.896c.003-.002.307-.205 1.286-.205v-8c-1.98 0-4.036.397-5.793 1.595l4.507 6.61Zm1.286-.205c.425 0 .66.053.761.084.086.027.053.032-.016-.03l5.351-5.947c-1.771-1.594-4-2.107-6.096-2.107v8Zm.745.053c.02.019.02.022.009.007a.384.384 0 0 1-.043-.073.373.373 0 0 1-.028-.078c-.004-.016-.001-.012 0 .019l7.995-.296c-.08-2.157-.973-4.078-2.582-5.525l-5.351 5.946Zm-.062-.125c-.002-.07.016-.094-.007-.037-.029.07-.119.252-.36.535l6.089 5.188c1.362-1.598 2.36-3.62 2.273-5.982l-7.995.296Zm-.376.508-7.92 9.36 6.107 5.168 7.92-9.36-6.107-5.168Zm-.867 11.944V89.6h-8v3.72h8Zm-7.13-1.23 8.88 11.161 6.26-4.982-8.879-11.16-6.261 4.982Zm8.865 11.141c.216.275.268.422.274.438.002.006-.005-.014-.009-.057a.583.583 0 0 1 .004-.138l7.913 1.172c.367-2.472-.549-4.65-1.891-6.357l-6.291 4.942Zm.272.221c-.003.017-.003.011.004-.01a.452.452 0 0 1 .076-.128c.005-.006-.005.006-.039.031l4.705 6.47c1.71-1.243 2.833-3.013 3.161-5.147l-7.907-1.216Zm-.031-.054a.458.458 0 0 1-.152.067 2.374 2.374 0 0 1-.664.075v8c1.974 0 3.969-.487 5.665-1.778l-4.849-6.364Zm-.816.142c-1.184 0-1.687-.215-1.824-.295l-4.031 6.91c1.783 1.04 3.84 1.385 5.855 1.385v-8Zm-1.72-.232c-.437-.274-1.062-.817-1.837-1.817l-6.325 4.898c1.145 1.48 2.44 2.777 3.922 3.703l4.24-6.784Zm-1.894-1.889-7.5-9.24-6.211 5.042 7.5 9.24 6.211-5.042ZM359.763 90.7h-.12v8h.12v-8Zm-4.12 4v7.44h8V94.7h-8Zm0 7.44c0 1.183-.293 1.336-.178 1.222.115-.115-.038.178-1.222.178v8c2.417 0 4.964-.607 6.879-2.522 1.915-1.914 2.521-4.461 2.521-6.878h-8Z" fill="#fff" mask="url('#path-1-outside-1_658_37')"/><path d="M9.84 38.182 40.27 64.3l-11.907 9.626L9.84 38.182Z" fill="#EAD300"/><ellipse cx="325.062" cy="43" rx="3" ry="4" fill="#9F00EA"/><circle cx="47.062" cy="29" r="8" fill="#EAA900"/><path fill="#EA0000" d="m342.372 41.042 6.747-3.259 4.235 10.755-6.747 3.259zM43.103 52 31.061 28.886 39.018 25l12.043 23.114z"/><path d="M1.061 16.554s14.393-6.976 17.658-3.32c1.794 2.009 3.148 4.442 1.542 6.418-1.239 1.524-3.026 1.718-5.121 1.36-4.436-.758-4.37-6.753-2.588-10.465 2.458-5.126 15.51-2.1 15.51-2.1" stroke="#84E847" stroke-width="1.2"/><path d="M373.261 40s-1.182-6.748 2.211-8.092c2.85-1.13 5.321 3.866 7.663 2.055 2.372-1.835-3.55-4.742-1.621-6.937 2.03-2.31 8.548 0 8.548 0" stroke="#005EEA" stroke-width="1.2"/><path d="M388.746 58.959c3.096-2.595 1.447-9.66 4.341-6.207 2.893 3.453 2.729 8.355-.366 10.95-3.096 2.594-7.951 1.898-10.845-1.555-2.894-3.453 3.774-.594 6.87-3.188Z" fill="#005EEA"/><path d="m352.562 10 2.806 8.637h9.082l-7.348 5.338 2.807 8.638-7.347-5.338-7.348 5.338 2.807-8.638-7.348-5.338h9.082L352.562 10Z" fill="#84E847"/><path d="m367.062 44 1.571 5.182h5.086l-4.115 3.203 1.572 5.183-4.114-3.203-4.115 3.203 1.572-5.183-4.115-3.203h5.086L367.062 44Z" fill="#EAD300"/><path d="m60.67 51.104 1.075-9.868 7.488 5.057.853-8.279 6.83 5.012 2.128-8.95" stroke="#005EEA"/></svg>